<svg width="32" height="32" viewBox="0 0 32 32" fill="none" xmlns="http://www.w3.org/2000/svg">
<g clip-path="url(#clip0_5_203)">
<path d="M17.3334 1.33333C17.3334 0.979704 17.4738 0.640566 17.7239 0.390517C17.9739 0.140469 18.3131 -6.94022e-06 18.6667 -6.94022e-06C22.2017 0.00387519 25.5908 1.40988 28.0905 3.90952C30.5901 6.40917 31.9961 9.7983 32 13.3333C32 13.6869 31.8595 14.0261 31.6095 14.2761C31.3594 14.5262 31.0203 14.6667 30.6667 14.6667C30.3131 14.6667 29.9739 14.5262 29.7239 14.2761C29.4738 14.0261 29.3334 13.6869 29.3334 13.3333C29.3302 10.5053 28.2054 7.79406 26.2057 5.79436C24.206 3.79466 21.4947 2.66984 18.6667 2.66666C18.3131 2.66666 17.9739 2.52618 17.7239 2.27614C17.4738 2.02609 17.3334 1.68695 17.3334 1.33333ZM18.6667 7.99999C20.0812 7.99999 21.4377 8.5619 22.4379 9.56209C23.4381 10.5623 24 11.9188 24 13.3333C24 13.6869 24.1405 14.0261 24.3905 14.2761C24.6406 14.5262 24.9797 14.6667 25.3334 14.6667C25.687 14.6667 26.0261 14.5262 26.2762 14.2761C26.5262 14.0261 26.6667 13.6869 26.6667 13.3333C26.6646 11.2122 25.821 9.17864 24.3212 7.67881C22.8214 6.17898 20.7878 5.33544 18.6667 5.33333C18.3131 5.33333 17.9739 5.4738 17.7239 5.72385C17.4738 5.9739 17.3334 6.31304 17.3334 6.66666C17.3334 7.02028 17.4738 7.35942 17.7239 7.60947C17.9739 7.85952 18.3131 7.99999 18.6667 7.99999ZM30.7907 22.3187C31.5634 23.0935 31.9973 24.1431 31.9973 25.2373C31.9973 26.3316 31.5634 27.3812 30.7907 28.156L29.5774 29.5547C18.6574 40.0093 -7.91598 13.4427 2.37735 2.48799L3.91069 1.15466C4.68638 0.403563 5.7266 -0.0119415 6.80629 -0.00196048C7.88599 0.00802053 8.91835 0.442684 9.68002 1.20799C9.72136 1.24933 12.192 4.45866 12.192 4.45866C12.9251 5.22883 13.3332 6.2519 13.3315 7.3152C13.3298 8.3785 12.9183 9.40022 12.1827 10.168L10.6387 12.1093C11.4932 14.1855 12.7494 16.0723 14.3354 17.6615C15.9213 19.2506 17.8056 20.5107 19.88 21.3693L21.8334 19.816C22.6012 19.0809 23.6228 18.67 24.6858 18.6685C25.7487 18.667 26.7714 19.0751 27.5414 19.808C27.5414 19.808 30.7494 22.2773 30.7907 22.3187ZM28.956 24.2573C28.956 24.2573 25.7654 21.8027 25.724 21.7613C25.4493 21.489 25.0782 21.3362 24.6914 21.3362C24.3045 21.3362 23.9334 21.489 23.6587 21.7613C23.6227 21.7987 20.9334 23.9413 20.9334 23.9413C20.7521 24.0856 20.5364 24.1801 20.3076 24.2157C20.0787 24.2512 19.8445 24.2265 19.628 24.144C16.9406 23.1434 14.4997 21.577 12.4705 19.5508C10.4413 17.5246 8.87122 15.0859 7.86669 12.4C7.77762 12.1806 7.74858 11.9414 7.78256 11.7071C7.81654 11.4728 7.91231 11.2517 8.06002 11.0667C8.06002 11.0667 10.2027 8.37599 10.2387 8.34133C10.511 8.06664 10.6639 7.69548 10.6639 7.30866C10.6639 6.92184 10.511 6.55068 10.2387 6.27599C10.1974 6.23599 7.74269 3.04266 7.74269 3.04266C7.46389 2.79267 7.10003 2.65879 6.72569 2.66846C6.35134 2.67812 5.99488 2.83061 5.72935 3.09466L4.19602 4.42799C-3.32665 13.4733 19.7014 35.224 27.628 27.7333L28.8427 26.3333C29.1273 26.0697 29.2983 25.7057 29.3194 25.3183C29.3406 24.9309 29.2103 24.5504 28.956 24.2573Z" fill="black"/>
</g>
<defs>
<clipPath id="clip0_5_203">
<rect width="32" height="32" fill="white"/>
</clipPath>
</defs>
</svg>
