<svg width="32" height="32" viewBox="0 0 32 32" fill="none" xmlns="http://www.w3.org/2000/svg">
<g clip-path="url(#clip0_2_11)">
<path d="M23.3333 2.556C21.8319 2.57935 20.3633 2.99847 19.0757 3.77103C17.7881 4.54359 16.7271 5.64223 16 6.956C15.2728 5.64223 14.2119 4.54359 12.9243 3.77103C11.6367 2.99847 10.1681 2.57935 8.66665 2.556C6.27324 2.65999 4.01826 3.70701 2.39436 5.46831C0.770464 7.22961 -0.090349 9.56203 -1.49221e-05 11.956C-1.49221e-05 18.0187 6.38132 24.64 11.7333 29.1293C12.9283 30.1335 14.4391 30.684 16 30.684C17.5608 30.684 19.0717 30.1335 20.2667 29.1293C25.6187 24.64 32 18.0187 32 11.956C32.0903 9.56203 31.2295 7.22961 29.6056 5.46831C27.9817 3.70701 25.7267 2.65999 23.3333 2.556ZM18.5533 27.0893C17.8386 27.6912 16.9343 28.0212 16 28.0212C15.0656 28.0212 14.1613 27.6912 13.4467 27.0893C6.59598 21.3413 2.66665 15.8267 2.66665 11.956C2.57551 10.269 3.15514 8.61431 4.27914 7.35293C5.40313 6.09156 6.9803 5.3258 8.66665 5.22267C10.353 5.3258 11.9302 6.09156 13.0542 7.35293C14.1782 8.61431 14.7578 10.269 14.6667 11.956C14.6667 12.3096 14.8071 12.6488 15.0572 12.8988C15.3072 13.1489 15.6464 13.2893 16 13.2893C16.3536 13.2893 16.6927 13.1489 16.9428 12.8988C17.1928 12.6488 17.3333 12.3096 17.3333 11.956C17.2422 10.269 17.8218 8.61431 18.9458 7.35293C20.0698 6.09156 21.647 5.3258 23.3333 5.22267C25.0197 5.3258 26.5968 6.09156 27.7208 7.35293C28.8448 8.61431 29.4245 10.269 29.3333 11.956C29.3333 15.8267 25.404 21.3413 18.5533 27.084V27.0893Z" fill="black"/>
</g>
<defs>
<clipPath id="clip0_2_11">
<rect width="32" height="32" fill="white"/>
</clipPath>
</defs>
</svg>
