<svg width="32" height="27" viewBox="0 0 32 27" fill="none" xmlns="http://www.w3.org/2000/svg">
<path d="M27.2 0H4.8C3.52698 0 2.30605 0.533386 1.40589 1.48277C0.505727 2.43216 0 3.71986 0 5.0625V21.9375C0 23.2801 0.505727 24.5678 1.40589 25.5172C2.30605 26.4666 3.52698 27 4.8 27H27.2C28.473 27 29.694 26.4666 30.5941 25.5172C31.4943 24.5678 32 23.2801 32 21.9375V5.0625C32 3.71986 31.4943 2.43216 30.5941 1.48277C29.694 0.533386 28.473 0 27.2 0ZM26.544 3.375L17.136 13.2975C16.9873 13.4557 16.8103 13.5812 16.6153 13.6669C16.4204 13.7525 16.2112 13.7967 16 13.7967C15.7888 13.7967 15.5796 13.7525 15.3847 13.6669C15.1897 13.5812 15.0127 13.4557 14.864 13.2975L5.456 3.375H26.544ZM28.8 21.9375C28.8 22.385 28.6314 22.8143 28.3314 23.1308C28.0313 23.4472 27.6243 23.625 27.2 23.625H4.8C4.37568 23.625 3.9687 23.4472 3.66861 23.1308C3.36858 22.8143 3.2 22.385 3.2 21.9375V5.75438L12.608 15.6769C13.508 16.6249 14.728 17.1574 16 17.1574C17.272 17.1574 18.492 16.6249 19.392 15.6769L28.8 5.75438V21.9375Z" fill="black"/>
</svg>
