<svg width="30" height="30" viewBox="0 0 30 30" fill="none" xmlns="http://www.w3.org/2000/svg">
<path d="M27.4424 0.264827C27.4424 0.264827 30.2176 -1.03369 29.9863 2.11998C29.9092 3.41857 29.2154 7.96356 28.6758 12.8796L26.8256 27.4422C26.8256 27.4422 26.6715 29.5756 25.2839 29.9466C23.8962 30.3176 21.8149 28.6481 21.4294 28.277C21.121 27.9988 15.6477 23.8247 13.7204 21.7841C13.1808 21.2276 12.5641 20.1145 13.7975 18.8159L21.892 9.54043C22.817 8.42738 23.7421 5.8302 19.8876 8.98387L9.09511 17.7957C9.09511 17.7957 7.86163 18.7232 5.549 17.8884L0.538161 16.0333C0.538161 16.0333 -1.312 14.642 1.84868 13.2506C9.55765 8.89106 19.0397 4.43881 27.4424 0.264827Z" fill="black"/>
</svg>
