<svg width="32" height="32" viewBox="0 0 32 32" fill="none" xmlns="http://www.w3.org/2000/svg">
<path fill-rule="evenodd" clip-rule="evenodd" d="M16.0673 0C20.3296 0.00157091 24.3303 1.65295 27.3384 4.65036C30.347 7.64777 32.0026 11.6314 32 15.869C31.9963 24.6115 24.8481 31.7254 16.0667 31.7254H16.0604C13.3941 31.7243 10.7735 31.0587 8.44643 29.7952L0 32L2.26061 23.7829C0.866584 21.3787 0.132943 18.6506 0.133995 15.8558C0.137152 7.11284 7.28532 0 16.0673 0ZM16.0625 29.047H16.0678C23.3669 29.047 29.3076 23.1348 29.3103 15.8669C29.3114 12.3452 27.9355 9.03401 25.4351 6.54295C22.9347 4.0519 19.6097 2.67887 16.0726 2.67782C8.76809 2.67782 2.82682 8.58956 2.82419 15.8563C2.82308 18.3469 3.52328 20.7718 4.84873 22.8702L5.16349 23.3692L3.82582 28.2327L8.8383 26.9243L9.32208 27.2099C11.3552 28.4105 13.6859 29.046 16.0625 29.047ZM20.6109 17.8871C20.9761 18.0194 22.9332 18.9776 23.3314 19.176C23.4083 19.2144 23.4803 19.249 23.5471 19.2812C23.8259 19.4153 24.0141 19.5059 24.0943 19.6395C24.1937 19.8046 24.1937 20.5983 23.862 21.5237C23.5302 22.4491 21.94 23.2936 21.175 23.4073C20.4886 23.5094 19.6209 23.5518 18.6671 23.2502C18.0887 23.0676 17.3476 22.8242 16.3975 22.4158C12.6638 20.8111 10.141 17.2091 9.66572 16.5307C9.63263 16.4834 9.60948 16.4503 9.59656 16.4331L9.59504 16.4311C9.39018 16.1599 7.97072 14.2801 7.97072 12.3347C7.97072 10.5104 8.87075 9.55421 9.28559 9.11343C9.31424 9.08294 9.34061 9.05495 9.36417 9.02929C9.72944 8.63244 10.1606 8.53353 10.4259 8.53353C10.6912 8.53353 10.957 8.53562 11.1888 8.54726C11.2175 8.54871 11.2473 8.54854 11.2781 8.54831C11.5102 8.54691 11.7993 8.54522 12.0847 9.22717C12.1948 9.49056 12.3563 9.8816 12.5264 10.2937C12.8686 11.1224 13.2459 12.0365 13.3123 12.169C13.4117 12.3674 13.4781 12.5987 13.3453 12.8632C13.325 12.9033 13.3064 12.9412 13.2886 12.9774C13.1891 13.1791 13.1157 13.328 12.947 13.5241C12.8808 13.601 12.8124 13.684 12.744 13.767C12.6068 13.9333 12.4695 14.0997 12.35 14.2182C12.1506 14.4157 11.9433 14.6299 12.1756 15.0267C12.4079 15.4231 13.207 16.7204 14.3905 17.7712C15.6623 18.9007 16.7679 19.3778 17.3285 19.6198C17.4382 19.6671 17.527 19.7055 17.5921 19.7379C17.9898 19.9363 18.2222 19.9035 18.4545 19.639C18.6868 19.3744 19.4498 18.4824 19.7151 18.0855C19.9804 17.6887 20.2462 17.7548 20.6109 17.8871Z" fill="black"/>
</svg>
