<svg width="245" height="50" viewBox="0 0 245 50" fill="none" xmlns="http://www.w3.org/2000/svg">
<path d="M0.08 44.08C0.26 43.42 0.98 42.16 2.24 40.3C3.5 38.38 5.09 36.16 7.01 33.64C8.93 31.06 11.06 28.27 13.4 25.27C15.74 22.27 18.05 19.36 20.33 16.54C22.61 13.66 24.74 10.99 26.72 8.53C28.76 6.07 30.41 4.09 31.67 2.59C32.93 2.17 33.92 1.87 34.64 1.69C35.36 1.45 35.93 1.24 36.35 1.06C36.71 1.18 36.77 1.36 36.53 1.6C35.81 2.08 35.36 2.77 35.18 3.67C34.94 5.05 34.7 6.7 34.46 8.62C34.22 10.54 33.98 12.58 33.74 14.74C33.56 16.9 33.38 19.12 33.2 21.4C33.02 23.68 32.87 25.84 32.75 27.88C32.63 29.92 32.54 31.81 32.48 33.55C32.42 35.23 32.39 36.58 32.39 37.6C32.39 38.2 32.42 38.62 32.48 38.86C32.6 39.04 32.72 39.13 32.84 39.13C33.02 39.07 33.2 38.95 33.38 38.77C33.56 38.53 33.74 38.29 33.92 38.05C34.58 37.21 35.66 35.89 37.16 34.09C38.66 32.23 40.37 30.16 42.29 27.88C44.21 25.54 46.25 23.11 48.41 20.59C50.57 18.07 52.64 15.7 54.62 13.48C56.6 11.2 58.37 9.19 59.93 7.45C61.55 5.65 62.75 4.39 63.53 3.67C64.49 3.19 65.66 2.74 67.04 2.32C68.42 1.9 69.53 1.42 70.37 0.880002C70.55 0.880002 70.7 0.970001 70.82 1.15C70.94 1.27 70.94 1.42 70.82 1.6C69.8 2.02 69.05 2.38 68.57 2.68C68.15 2.98 67.79 3.55 67.49 4.39C66.77 6.67 66.02 9.34 65.24 12.4C64.52 15.4 63.83 18.49 63.17 21.67C62.57 24.85 62.06 27.97 61.64 31.03C61.22 34.03 61.01 36.67 61.01 38.95C61.01 39.79 61.19 40.39 61.55 40.75C61.97 41.05 62.45 41.2 62.99 41.2C63.53 41.2 64.13 41.14 64.79 41.02C65.45 40.9 66.05 40.72 66.59 40.48C66.71 40.48 66.77 40.57 66.77 40.75C66.83 40.87 66.8 40.99 66.68 41.11C66.08 41.29 65.36 41.5 64.52 41.74C63.74 41.98 62.93 42.22 62.09 42.46C61.31 42.7 60.56 42.91 59.84 43.09C59.18 43.33 58.61 43.51 58.13 43.63C57.41 43.63 56.81 43.48 56.33 43.18C55.91 42.94 55.64 42.46 55.52 41.74C55.58 40.9 55.79 39.52 56.15 37.6C56.51 35.68 56.96 33.52 57.5 31.12C58.04 28.72 58.61 26.2 59.21 23.56C59.87 20.92 60.47 18.49 61.01 16.27C61.55 13.99 62 12.07 62.36 10.51C62.78 8.95 63.02 8.02 63.08 7.72C63.32 6.82 63.32 6.4 63.08 6.46C62.84 6.46 62.48 6.67 62 7.09C60.86 8.11 59.51 9.43 57.95 11.05C56.45 12.61 54.83 14.35 53.09 16.27C51.41 18.19 49.67 20.23 47.87 22.39C46.07 24.55 44.3 26.71 42.56 28.87C40.82 31.03 39.17 33.16 37.61 35.26C36.05 37.3 34.67 39.19 33.47 40.93C33.35 41.17 33.2 41.47 33.02 41.83C32.84 42.13 32.69 42.49 32.57 42.91C31.43 42.97 30.56 43.12 29.96 43.36C29.42 43.66 28.85 44.08 28.25 44.62C27.89 44.74 27.68 44.68 27.62 44.44C27.8 43.18 27.98 41.5 28.16 39.4C28.4 37.3 28.61 34.99 28.79 32.47C29.03 29.95 29.24 27.37 29.42 24.73C29.6 22.03 29.78 19.51 29.96 17.17C30.14 14.77 30.29 12.67 30.41 10.87C30.53 9.07 30.62 7.78 30.68 7C30.68 5.86 30.2 5.86 29.24 7C27.5 8.98 25.43 11.47 23.03 14.47C20.69 17.47 18.32 20.59 15.92 23.83C13.52 27.07 11.24 30.25 9.08 33.37C6.98 36.49 5.3 39.19 4.04 41.47C2.96 43.45 2.3 44.95 2.06 45.97C1.88 46.99 1.82 47.83 1.88 48.49C1.94 49.15 1.88 49.42 1.7 49.3C1.52 49.24 1.34 49.03 1.16 48.67C0.98 48.31 0.83 47.77 0.71 47.05C0.59 46.33 0.38 45.34 0.08 44.08ZM101.87 30.67C100.49 32.35 98.96 34.06 97.28 35.8C95.66 37.48 94.01 39.01 92.33 40.39C90.65 41.77 88.97 42.88 87.29 43.72C85.67 44.56 84.17 44.98 82.79 44.98C81.59 44.98 80.75 44.68 80.27 44.08C79.79 43.48 79.55 42.73 79.55 41.83C79.55 40.99 79.79 39.88 80.27 38.5C80.81 37.06 81.59 35.53 82.61 33.91C81.83 34.93 80.93 36.01 79.91 37.15C78.89 38.29 77.84 39.34 76.76 40.3C75.68 41.2 74.6 41.98 73.52 42.64C72.44 43.24 71.48 43.54 70.64 43.54C69.38 43.54 68.75 42.91 68.75 41.65C68.75 40.27 69.29 38.53 70.37 36.43C71.45 34.33 72.89 32.32 74.69 30.4C76.55 28.42 78.65 26.74 80.99 25.36C83.33 23.92 85.76 23.2 88.28 23.2C88.58 22.6 88.85 22.18 89.09 21.94C89.33 21.7 89.57 21.52 89.81 21.4L92.33 20.68L92.51 20.77C92.21 21.07 91.91 21.46 91.61 21.94C91.37 22.36 91.1 22.81 90.8 23.29C91.1 23.29 91.55 23.32 92.15 23.38C92.75 23.44 93.2 23.5 93.5 23.56C93.8 23.68 93.95 23.83 93.95 24.01C93.95 24.19 93.86 24.28 93.68 24.28C93.32 24.16 92.78 24.07 92.06 24.01C91.34 23.95 90.8 23.92 90.44 23.92C87.68 28.78 85.64 32.65 84.32 35.53C83.06 38.35 82.43 40.45 82.43 41.83C82.43 42.37 82.55 42.82 82.79 43.18C83.09 43.54 83.66 43.72 84.5 43.72C85.46 43.72 86.6 43.39 87.92 42.73C89.24 42.01 90.65 41.05 92.15 39.85C93.65 38.59 95.18 37.15 96.74 35.53C98.36 33.91 99.89 32.2 101.33 30.4C101.45 30.22 101.57 30.19 101.69 30.31C101.81 30.37 101.87 30.49 101.87 30.67ZM87.83 23.83C85.79 23.83 83.84 24.55 81.98 25.99C80.12 27.43 78.47 29.14 77.03 31.12C75.59 33.04 74.42 34.96 73.52 36.88C72.68 38.8 72.26 40.21 72.26 41.11C72.26 41.59 72.44 41.83 72.8 41.83C73.16 41.83 73.7 41.59 74.42 41.11C75.2 40.63 76.07 40 77.03 39.22C77.99 38.38 78.95 37.42 79.91 36.34C80.93 35.26 81.86 34.09 82.7 32.83C83.66 31.39 84.59 29.86 85.49 28.24C86.39 26.62 87.2 25.18 87.92 23.92L87.83 23.83ZM139.414 5.2C139.414 5.44 139.234 5.86 138.874 6.46C138.514 7 138.184 7.27 137.884 7.27C137.764 7.27 137.614 7.24 137.434 7.18C137.254 7.12 137.014 6.94 136.714 6.64C135.874 5.86 134.524 5.11 132.664 4.39C130.804 3.61 128.614 3.22 126.094 3.22C124.294 3.22 122.494 3.52 120.694 4.12C118.954 4.72 117.364 5.65 115.924 6.91C114.544 8.11 113.434 9.61 112.594 11.41C111.754 13.21 111.334 15.31 111.334 17.71C111.334 20.65 112.054 22.99 113.494 24.73C113.494 25.03 113.224 25.39 112.684 25.81C112.204 26.17 111.844 26.35 111.604 26.35C111.244 26.35 110.794 26.08 110.254 25.54C109.714 24.94 108.844 24.64 107.644 24.64C106.624 24.64 105.754 25 105.034 25.72C104.374 26.38 104.044 27.43 104.044 28.87C104.044 29.53 104.134 30.16 104.314 30.76C104.554 31.36 104.764 31.96 104.944 32.56C105.184 33.1 105.394 33.64 105.574 34.18C105.814 34.72 105.934 35.26 105.934 35.8C106.594 34.96 107.254 34.12 107.914 33.28C108.574 32.38 109.204 31.54 109.804 30.76C110.044 30.58 110.404 30.37 110.884 30.13C111.364 29.89 112.024 29.62 112.864 29.32C113.764 28.96 114.904 28.54 116.284 28.06C117.664 27.58 119.374 27.04 121.414 26.44C121.894 25.6 122.584 24.4 123.484 22.84C124.444 21.22 125.434 19.57 126.454 17.89C127.474 16.15 128.494 14.53 129.514 13.03C130.534 11.53 131.374 10.42 132.034 9.7C132.274 9.52 132.814 9.28 133.654 8.98C134.494 8.62 135.124 8.44 135.544 8.44C135.664 8.44 135.724 8.5 135.724 8.62C135.724 8.74 135.544 8.98 135.184 9.34C134.764 9.82 134.134 10.63 133.294 11.77C132.454 12.91 131.524 14.23 130.504 15.73C129.484 17.23 128.434 18.88 127.354 20.68C126.274 22.42 125.254 24.16 124.294 25.9C126.394 25.6 128.704 25.33 131.224 25.09C133.804 24.79 136.354 24.58 138.874 24.46C138.874 24.7 138.814 24.88 138.694 25C137.674 25.06 136.534 25.15 135.274 25.27C134.014 25.33 132.694 25.45 131.314 25.63C129.994 25.75 128.674 25.9 127.354 26.08C126.094 26.26 124.924 26.47 123.844 26.71C123.484 27.43 123.034 28.39 122.494 29.59C122.014 30.73 121.534 31.93 121.054 33.19C120.634 34.45 120.244 35.68 119.884 36.88C119.584 38.08 119.434 39.1 119.434 39.94C119.434 40.96 119.614 41.83 119.974 42.55C120.334 43.27 121.294 43.63 122.854 43.63C123.814 43.63 124.894 43.45 126.094 43.09C127.354 42.79 128.404 42.31 129.244 41.65C129.364 41.53 129.574 41.53 129.874 41.65C130.174 41.77 130.084 41.98 129.604 42.28C128.344 43 126.964 43.57 125.464 43.99C123.964 44.47 122.434 44.71 120.874 44.71C119.794 44.71 118.684 44.41 117.544 43.81C116.464 43.27 115.924 42.19 115.924 40.57C115.924 39.91 115.984 39.22 116.104 38.5C116.284 37.78 116.554 36.91 116.914 35.89C117.274 34.87 117.784 33.67 118.444 32.29C119.164 30.85 120.064 29.14 121.144 27.16C117.184 28.36 113.824 29.8 111.064 31.48C108.364 33.16 106.594 35.11 105.754 37.33C105.574 37.87 105.274 38.5 104.854 39.22C104.434 39.94 103.864 40.63 103.144 41.29C102.424 41.89 101.524 42.43 100.444 42.91C99.4241 43.33 98.1941 43.54 96.7541 43.54C95.9141 43.54 95.1041 43.3 94.3241 42.82C93.5441 42.28 93.1541 41.32 93.1541 39.94C93.1541 39.58 93.2141 39.22 93.3341 38.86C93.4541 38.44 93.6341 38.14 93.8741 37.96C94.0541 37.84 94.4141 37.69 94.9541 37.51C95.4941 37.33 95.8541 37.24 96.0341 37.24C96.3341 37.36 96.3641 37.54 96.1241 37.78C95.8841 38.02 95.7641 38.47 95.7641 39.13C95.7641 40.03 96.0341 40.81 96.5741 41.47C97.1741 42.07 98.1341 42.37 99.4541 42.37C100.474 42.37 101.404 42.04 102.244 41.38C103.084 40.66 103.504 39.67 103.504 38.41C103.504 37.93 103.444 37.42 103.324 36.88C103.204 36.28 102.994 35.74 102.694 35.26C101.734 33.52 101.254 32.02 101.254 30.76C101.254 29.44 101.674 28.15 102.514 26.89C103.414 25.57 104.914 24.49 107.014 23.65C107.734 23.35 108.514 23.2 109.354 23.2C109.834 23.2 110.224 23.26 110.524 23.38C110.884 23.5 111.094 23.56 111.154 23.56C111.334 23.56 111.364 23.47 111.244 23.29C110.944 22.57 110.734 21.79 110.614 20.95C110.494 20.05 110.434 19.27 110.434 18.61C110.434 16.69 110.794 14.71 111.514 12.67C112.234 10.63 113.344 8.77 114.844 7.09C116.344 5.41 118.264 4.03 120.604 2.95C122.944 1.87 125.734 1.33 128.974 1.33C130.534 1.33 132.184 1.6 133.924 2.14C135.724 2.62 137.194 3.19 138.334 3.85C139.054 4.27 139.414 4.72 139.414 5.2ZM153.988 32.29C152.968 33.55 151.738 34.87 150.298 36.25C148.918 37.57 147.388 38.8 145.708 39.94C144.088 41.02 142.378 41.92 140.578 42.64C138.838 43.3 137.098 43.63 135.358 43.63C132.538 43.63 131.128 42.37 131.128 39.85C131.128 38.17 131.548 36.37 132.388 34.45C133.288 32.47 134.428 30.67 135.808 29.05C137.188 27.37 138.688 25.99 140.308 24.91C141.988 23.77 143.578 23.2 145.078 23.2C145.918 23.2 146.488 23.35 146.788 23.65C147.148 23.95 147.328 24.34 147.328 24.82C147.328 25.54 147.088 26.32 146.608 27.16C146.188 28 145.528 28.81 144.628 29.59C143.728 30.31 142.588 30.94 141.208 31.48C139.828 31.96 138.178 32.2 136.258 32.2C135.958 32.74 135.628 33.61 135.268 34.81C134.908 35.95 134.728 37.12 134.728 38.32C134.728 40.78 135.838 42.01 138.058 42.01C139.438 42.01 140.848 41.68 142.288 41.02C143.788 40.36 145.228 39.55 146.608 38.59C147.988 37.57 149.248 36.49 150.388 35.35C151.588 34.15 152.578 33.04 153.358 32.02C153.478 31.9 153.598 31.87 153.718 31.93C153.898 31.99 153.988 32.11 153.988 32.29ZM144.538 25.27C144.538 24.49 144.148 24.1 143.368 24.1C142.768 24.1 142.138 24.34 141.478 24.82C140.878 25.24 140.278 25.81 139.678 26.53C139.078 27.25 138.508 28.03 137.968 28.87C137.428 29.71 136.978 30.52 136.618 31.3C136.738 31.36 136.948 31.42 137.248 31.48C137.548 31.48 137.788 31.48 137.968 31.48C139.708 31.48 141.238 30.88 142.558 29.68C143.878 28.42 144.538 26.95 144.538 25.27ZM188.465 11.14C188.465 11.74 188.195 12.4 187.655 13.12C187.175 13.78 186.395 14.11 185.315 14.11C184.595 13.99 184.235 13.6 184.235 12.94C184.235 12.4 184.505 11.77 185.045 11.05C185.585 10.27 186.275 9.88 187.115 9.88C187.595 9.88 187.925 10.03 188.105 10.33C188.345 10.57 188.465 10.84 188.465 11.14ZM190.715 31.57C190.415 31.87 189.605 32.68 188.285 34C186.965 35.26 185.375 36.61 183.515 38.05C181.715 39.43 179.795 40.69 177.755 41.83C175.715 42.97 173.825 43.54 172.085 43.54C170.525 43.54 169.745 42.76 169.745 41.2C169.745 40.12 170.225 38.62 171.185 36.7C171.605 35.86 172.085 34.96 172.625 34C173.165 33.04 173.705 32.08 174.245 31.12C174.845 30.1 175.415 29.14 175.955 28.24C176.495 27.34 176.975 26.56 177.395 25.9C177.515 25.72 177.455 25.6 177.215 25.54C176.975 25.42 176.735 25.42 176.495 25.54C174.455 26.5 172.565 27.31 170.825 27.97C169.145 28.63 167.675 28.96 166.415 28.96C165.455 28.96 164.705 28.84 164.165 28.6C163.625 28.36 163.175 28.12 162.815 27.88C162.455 27.58 162.155 27.31 161.915 27.07C161.735 26.83 161.495 26.71 161.195 26.71C160.775 26.71 159.965 27.28 158.765 28.42C157.625 29.56 156.365 31.39 154.985 33.91C154.145 35.35 153.275 36.94 152.375 38.68C151.475 40.36 150.695 41.77 150.035 42.91C149.795 43.33 149.465 43.54 149.045 43.54C148.865 43.54 148.565 43.3 148.145 42.82C147.725 42.28 147.515 41.77 147.515 41.29C147.515 40.69 147.935 39.7 148.775 38.32C149.675 36.94 150.695 35.35 151.835 33.55C152.855 31.93 153.725 30.43 154.445 29.05C155.225 27.61 155.615 26.47 155.615 25.63C155.615 25.21 155.525 24.85 155.345 24.55C155.165 24.25 154.805 24.1 154.265 24.1C153.605 24.1 152.885 24.31 152.105 24.73C151.325 25.15 150.545 25.6 149.765 26.08C149.525 25.96 149.405 25.81 149.405 25.63C150.245 25.03 151.145 24.49 152.105 24.01C153.125 23.47 154.145 23.2 155.165 23.2C156.185 23.2 156.905 23.41 157.325 23.83C157.745 24.19 157.955 24.88 157.955 25.9C157.955 26.32 157.865 26.89 157.685 27.61C157.505 28.27 157.295 28.84 157.055 29.32C156.935 29.5 156.875 29.62 156.875 29.68C156.935 29.74 157.025 29.71 157.145 29.59C158.765 27.43 160.265 25.84 161.645 24.82C163.025 23.74 163.865 23.2 164.165 23.2C164.405 23.2 164.585 23.44 164.705 23.92C165.005 24.82 165.575 25.6 166.415 26.26C167.255 26.86 168.185 27.16 169.205 27.16C170.765 27.16 172.295 26.83 173.795 26.17C175.355 25.45 177.005 24.58 178.745 23.56C179.105 23.32 179.585 23.14 180.185 23.02C180.845 22.84 181.235 22.75 181.355 22.75C181.775 22.75 181.985 22.9 181.985 23.2C181.985 23.38 181.925 23.59 181.805 23.83C180.425 25.93 179.015 28.12 177.575 30.4C176.195 32.68 175.085 34.84 174.245 36.88C174.065 37.3 173.915 37.78 173.795 38.32C173.735 38.8 173.705 39.19 173.705 39.49C173.705 40.87 174.365 41.56 175.685 41.56C176.225 41.56 177.005 41.32 178.025 40.84C179.105 40.36 180.275 39.67 181.535 38.77C182.855 37.87 184.265 36.76 185.765 35.44C187.265 34.12 188.765 32.65 190.265 31.03C190.505 30.79 190.715 30.73 190.895 30.85C191.135 30.97 191.075 31.21 190.715 31.57ZM214.22 32.2C213.2 33.64 212 35.17 210.62 36.79C209.24 38.35 207.8 39.79 206.3 41.11C204.8 42.43 203.27 43.51 201.71 44.35C200.15 45.25 198.68 45.7 197.3 45.7C196.28 45.7 195.47 45.43 194.87 44.89C194.33 44.35 194.06 43.51 194.06 42.37C194.06 41.83 194.12 41.23 194.24 40.57C194.42 39.85 194.69 39.07 195.05 38.23C194.69 38.65 194.27 39.16 193.79 39.76C193.37 40.3 192.86 40.84 192.26 41.38C191.72 41.86 191.09 42.28 190.37 42.64C189.71 42.94 188.96 43.09 188.12 43.09C187.46 43.09 186.92 42.91 186.5 42.55C186.08 42.13 185.87 41.5 185.87 40.66C185.87 40.18 185.96 39.58 186.14 38.86C186.38 38.14 186.77 37.18 187.31 35.98C187.91 34.72 188.69 33.19 189.65 31.39C190.67 29.53 191.96 27.25 193.52 24.55C193.82 23.95 194.09 23.65 194.33 23.65C194.75 23.65 195.17 23.92 195.59 24.46C196.07 24.94 196.31 25.27 196.31 25.45C196.31 25.63 196.13 25.99 195.77 26.53C194.81 27.97 193.91 29.41 193.07 30.85C192.23 32.29 191.48 33.64 190.82 34.9C190.22 36.16 189.71 37.3 189.29 38.32C188.93 39.28 188.75 40.03 188.75 40.57C188.75 41.47 189.08 41.92 189.74 41.92C190.34 41.92 191.15 41.47 192.17 40.57C193.25 39.61 194.51 38.02 195.95 35.8C196.49 34.84 197.03 33.85 197.57 32.83C198.17 31.75 198.74 30.73 199.28 29.77C199.82 28.81 200.33 27.94 200.81 27.16C201.29 26.32 201.65 25.69 201.89 25.27C202.19 24.85 202.43 24.64 202.61 24.64C202.85 24.64 203.12 24.91 203.42 25.45C203.72 25.93 203.87 26.53 203.87 27.25C203.87 27.73 203.75 28.18 203.51 28.6C202.79 29.68 202.01 30.76 201.17 31.84C200.39 32.86 199.64 33.94 198.92 35.08C198.26 36.22 197.69 37.42 197.21 38.68C196.73 39.94 196.49 41.32 196.49 42.82C196.49 44.14 197.12 44.8 198.38 44.8C199.22 44.8 200.21 44.47 201.35 43.81C202.55 43.21 203.84 42.34 205.22 41.2C206.6 40.06 208.01 38.68 209.45 37.06C210.95 35.44 212.36 33.67 213.68 31.75C214.04 31.63 214.22 31.78 214.22 32.2ZM243.832 35.26C242.992 36.22 241.972 37.3 240.772 38.5C239.632 39.7 238.402 40.84 237.082 41.92C235.762 43 234.382 43.9 232.942 44.62C231.562 45.34 230.212 45.7 228.892 45.7C227.692 45.7 226.852 45.46 226.372 44.98C225.892 44.5 225.652 43.75 225.652 42.73C225.652 42.07 225.982 40.99 226.642 39.49C227.362 37.99 228.142 36.43 228.982 34.81C229.822 33.19 230.572 31.66 231.232 30.22C231.952 28.72 232.312 27.67 232.312 27.07C232.312 26.71 232.162 26.53 231.862 26.53C231.082 26.95 230.182 27.58 229.162 28.42C228.202 29.2 227.242 30.07 226.282 31.03C225.322 31.99 224.422 32.92 223.582 33.82C222.802 34.72 222.202 35.47 221.782 36.07C221.362 36.67 220.942 37.39 220.522 38.23C220.102 39.07 219.682 39.88 219.262 40.66C218.902 41.44 218.512 42.1 218.092 42.64C217.732 43.18 217.402 43.45 217.102 43.45C216.802 43.45 216.532 43.3 216.292 43C216.052 42.7 215.932 42.4 215.932 42.1C215.932 41.92 216.022 41.62 216.202 41.2C216.382 40.72 216.712 40.15 217.192 39.49C217.972 38.41 218.662 37.27 219.262 36.07C219.922 34.87 220.462 33.76 220.882 32.74C221.362 31.72 221.722 30.85 221.962 30.13C222.202 29.41 222.322 28.99 222.322 28.87C222.322 28.39 222.202 28.15 221.962 28.15C221.602 28.15 220.972 28.54 220.072 29.32C219.232 30.04 218.302 30.94 217.282 32.02C216.262 33.1 215.242 34.24 214.222 35.44C213.262 36.64 212.452 37.72 211.792 38.68C210.952 39.94 210.232 41.05 209.632 42.01C209.032 42.97 208.582 43.45 208.282 43.45C207.802 43.45 207.502 43.24 207.382 42.82C207.322 42.4 207.292 41.98 207.292 41.56C207.292 41.08 207.412 40.69 207.652 40.39C209.272 37.81 210.862 35.17 212.422 32.47C213.982 29.77 215.542 27.1 217.102 24.46C217.402 23.92 217.732 23.65 218.092 23.65C218.392 23.65 218.662 23.83 218.902 24.19C219.142 24.49 219.262 24.79 219.262 25.09C218.842 26.29 218.122 27.76 217.102 29.5C216.082 31.24 215.182 32.83 214.402 34.27C216.802 31.51 218.812 29.44 220.432 28.06C222.052 26.62 223.372 25.9 224.392 25.9C225.052 25.9 225.382 26.35 225.382 27.25C225.382 27.85 225.112 28.78 224.572 30.04C224.032 31.24 223.552 32.23 223.132 33.01C223.012 33.25 222.982 33.37 223.042 33.37C223.162 33.31 223.282 33.22 223.402 33.1C224.122 32.26 224.932 31.39 225.832 30.49C226.792 29.53 227.782 28.63 228.802 27.79C229.882 26.95 230.932 26.17 231.952 25.45C233.032 24.73 234.022 24.16 234.922 23.74C235.822 23.74 236.272 24.16 236.272 25C236.272 25.18 236.242 25.36 236.182 25.54C236.122 25.72 236.032 25.93 235.912 26.17C235.612 26.83 235.042 27.91 234.202 29.41C233.422 30.91 232.612 32.53 231.772 34.27C230.932 35.95 230.182 37.6 229.522 39.22C228.922 40.78 228.622 41.98 228.622 42.82C228.622 44.02 229.192 44.62 230.332 44.62C231.412 44.62 232.552 44.26 233.752 43.54C234.952 42.82 236.152 41.95 237.352 40.93C238.552 39.91 239.662 38.86 240.682 37.78C241.702 36.64 242.572 35.65 243.292 34.81C243.532 34.45 243.772 34.3 244.012 34.36C244.252 34.42 244.192 34.72 243.832 35.26Z" fill="black"/>
</svg>
