<svg width="32" height="32" viewBox="0 0 32 32" fill="none" xmlns="http://www.w3.org/2000/svg">
<g clip-path="url(#clip0_11_518)">
<path d="M31.6095 29.724L23.6509 21.7653C25.8197 19.1128 26.886 15.7281 26.6293 12.3114C26.3726 8.89471 24.8125 5.70737 22.2716 3.40869C19.7308 1.11001 16.4037 -0.124144 12.9784 -0.038502C9.55312 0.0471404 6.2918 1.44603 3.86902 3.86882C1.44623 6.2916 0.0473387 9.55292 -0.0383037 12.9782C-0.123946 16.4035 1.11021 19.7306 3.40889 22.2714C5.70757 24.8123 8.89491 26.3724 12.3116 26.6291C15.7283 26.8858 19.113 25.8195 21.7655 23.6507L29.7242 31.6093C29.9757 31.8522 30.3125 31.9866 30.6621 31.9836C31.0117 31.9805 31.3461 31.8403 31.5933 31.5931C31.8405 31.3459 31.9807 31.0115 31.9838 30.6619C31.9868 30.3123 31.8524 29.9755 31.6095 29.724ZM13.3335 24C11.2239 24 9.16157 23.3744 7.40745 22.2023C5.65332 21.0303 4.28615 19.3644 3.47882 17.4153C2.67148 15.4662 2.46025 13.3215 2.87182 11.2524C3.2834 9.18324 4.2993 7.28262 5.79106 5.79086C7.28282 4.2991 9.18344 3.2832 11.2526 2.87162C13.3217 2.46005 15.4664 2.67128 17.4155 3.47862C19.3646 4.28595 21.0305 5.65313 22.2025 7.40725C23.3746 9.16137 24.0002 11.2237 24.0002 13.3333C23.997 16.1613 22.8722 18.8726 20.8725 20.8723C18.8728 22.872 16.1615 23.9968 13.3335 24Z" fill="black"/>
</g>
<defs>
<clipPath id="clip0_11_518">
<rect width="32" height="32" fill="white"/>
</clipPath>
</defs>
</svg>
